<svg width="15" height="16" viewBox="0 0 15 16" fill="none" xmlns="http://www.w3.org/2000/svg">
<path d="M0 1.33333C0 1.11232 0.0877973 0.900358 0.244078 0.744078C0.400358 0.587797 0.61232 0.5 0.833333 0.5H3.33333C3.55435 0.5 3.76631 0.587797 3.92259 0.744078C4.07887 0.900358 4.16667 1.11232 4.16667 1.33333V3.83333C4.16667 4.05435 4.07887 4.26631 3.92259 4.42259C3.76631 4.57887 3.55435 4.66667 3.33333 4.66667H0.833333C0.61232 4.66667 0.400358 4.57887 0.244078 4.42259C0.0877973 4.26631 0 4.05435 0 3.83333V1.33333ZM0 6.75C0 6.52899 0.0877973 6.31702 0.244078 6.16074C0.400358 6.00446 0.61232 5.91667 0.833333 5.91667H3.33333C3.55435 5.91667 3.76631 6.00446 3.92259 6.16074C4.07887 6.31702 4.16667 6.52899 4.16667 6.75V9.25C4.16667 9.47101 4.07887 9.68297 3.92259 9.83926C3.76631 9.99554 3.55435 10.0833 3.33333 10.0833H0.833333C0.61232 10.0833 0.400358 9.99554 0.244078 9.83926C0.0877973 9.68297 0 9.47101 0 9.25V6.75ZM0 12.1667C0 11.9457 0.0877973 11.7337 0.244078 11.5774C0.400358 11.4211 0.61232 11.3333 0.833333 11.3333H3.33333C3.55435 11.3333 3.76631 11.4211 3.92259 11.5774C4.07887 11.7337 4.16667 11.9457 4.16667 12.1667V14.6667C4.16667 14.8877 4.07887 15.0996 3.92259 15.2559C3.76631 15.4122 3.55435 15.5 3.33333 15.5H0.833333C0.61232 15.5 0.400358 15.4122 0.244078 15.2559C0.0877973 15.0996 0 14.8877 0 14.6667V12.1667ZM5.41667 1.33333C5.41667 1.11232 5.50446 0.900358 5.66074 0.744078C5.81702 0.587797 6.02899 0.5 6.25 0.5H8.75C8.97101 0.5 9.18297 0.587797 9.33926 0.744078C9.49554 0.900358 9.58333 1.11232 9.58333 1.33333V3.83333C9.58333 4.05435 9.49554 4.26631 9.33926 4.42259C9.18297 4.57887 8.97101 4.66667 8.75 4.66667H6.25C6.02899 4.66667 5.81702 4.57887 5.66074 4.42259C5.50446 4.26631 5.41667 4.05435 5.41667 3.83333V1.33333ZM5.41667 6.75C5.41667 6.52899 5.50446 6.31702 5.66074 6.16074C5.81702 6.00446 6.02899 5.91667 6.25 5.91667H8.75C8.97101 5.91667 9.18297 6.00446 9.33926 6.16074C9.49554 6.31702 9.58333 6.52899 9.58333 6.75V9.25C9.58333 9.47101 9.49554 9.68297 9.33926 9.83926C9.18297 9.99554 8.97101 10.0833 8.75 10.0833H6.25C6.02899 10.0833 5.81702 9.99554 5.66074 9.83926C5.50446 9.68297 5.41667 9.47101 5.41667 9.25V6.75ZM5.41667 12.1667C5.41667 11.9457 5.50446 11.7337 5.66074 11.5774C5.81702 11.4211 6.02899 11.3333 6.25 11.3333H8.75C8.97101 11.3333 9.18297 11.4211 9.33926 11.5774C9.49554 11.7337 9.58333 11.9457 9.58333 12.1667V14.6667C9.58333 14.8877 9.49554 15.0996 9.33926 15.2559C9.18297 15.4122 8.97101 15.5 8.75 15.5H6.25C6.02899 15.5 5.81702 15.4122 5.66074 15.2559C5.50446 15.0996 5.41667 14.8877 5.41667 14.6667V12.1667ZM10.8333 1.33333C10.8333 1.11232 10.9211 0.900358 11.0774 0.744078C11.2337 0.587797 11.4457 0.5 11.6667 0.5H14.1667C14.3877 0.5 14.5996 0.587797 14.7559 0.744078C14.9122 0.900358 15 1.11232 15 1.33333V3.83333C15 4.05435 14.9122 4.26631 14.7559 4.42259C14.5996 4.57887 14.3877 4.66667 14.1667 4.66667H11.6667C11.4457 4.66667 11.2337 4.57887 11.0774 4.42259C10.9211 4.26631 10.8333 4.05435 10.8333 3.83333V1.33333ZM10.8333 6.75C10.8333 6.52899 10.9211 6.31702 11.0774 6.16074C11.2337 6.00446 11.4457 5.91667 11.6667 5.91667H14.1667C14.3877 5.91667 14.5996 6.00446 14.7559 6.16074C14.9122 6.31702 15 6.52899 15 6.75V9.25C15 9.47101 14.9122 9.68297 14.7559 9.83926C14.5996 9.99554 14.3877 10.0833 14.1667 10.0833H11.6667C11.4457 10.0833 11.2337 9.99554 11.0774 9.83926C10.9211 9.68297 10.8333 9.47101 10.8333 9.25V6.75ZM10.8333 12.1667C10.8333 11.9457 10.9211 11.7337 11.0774 11.5774C11.2337 11.4211 11.4457 11.3333 11.6667 11.3333H14.1667C14.3877 11.3333 14.5996 11.4211 14.7559 11.5774C14.9122 11.7337 15 11.9457 15 12.1667V14.6667C15 14.8877 14.9122 15.0996 14.7559 15.2559C14.5996 15.4122 14.3877 15.5 14.1667 15.5H11.6667C11.4457 15.5 11.2337 15.4122 11.0774 15.2559C10.9211 15.0996 10.8333 14.8877 10.8333 14.6667V12.1667Z" fill="#A6A6A6"/>
</svg>
