<svg width="15" height="15" viewBox="0 0 15 15" fill="none" xmlns="http://www.w3.org/2000/svg">
<path d="M0 0.833333C0 0.61232 0.0877973 0.400358 0.244078 0.244078C0.400358 0.0877973 0.61232 0 0.833333 0H3.33333C3.55435 0 3.76631 0.0877973 3.92259 0.244078C4.07887 0.400358 4.16667 0.61232 4.16667 0.833333V3.33333C4.16667 3.55435 4.07887 3.76631 3.92259 3.92259C3.76631 4.07887 3.55435 4.16667 3.33333 4.16667H0.833333C0.61232 4.16667 0.400358 4.07887 0.244078 3.92259C0.0877973 3.76631 0 3.55435 0 3.33333V0.833333ZM0 6.25C0 6.02899 0.0877973 5.81702 0.244078 5.66074C0.400358 5.50446 0.61232 5.41667 0.833333 5.41667H3.33333C3.55435 5.41667 3.76631 5.50446 3.92259 5.66074C4.07887 5.81702 4.16667 6.02899 4.16667 6.25V8.75C4.16667 8.97101 4.07887 9.18297 3.92259 9.33926C3.76631 9.49554 3.55435 9.58333 3.33333 9.58333H0.833333C0.61232 9.58333 0.400358 9.49554 0.244078 9.33926C0.0877973 9.18297 0 8.97101 0 8.75V6.25ZM0 11.6667C0 11.4457 0.0877973 11.2337 0.244078 11.0774C0.400358 10.9211 0.61232 10.8333 0.833333 10.8333H3.33333C3.55435 10.8333 3.76631 10.9211 3.92259 11.0774C4.07887 11.2337 4.16667 11.4457 4.16667 11.6667V14.1667C4.16667 14.3877 4.07887 14.5996 3.92259 14.7559C3.76631 14.9122 3.55435 15 3.33333 15H0.833333C0.61232 15 0.400358 14.9122 0.244078 14.7559C0.0877973 14.5996 0 14.3877 0 14.1667V11.6667ZM5.41667 0.833333C5.41667 0.61232 5.50446 0.400358 5.66074 0.244078C5.81702 0.0877973 6.02899 0 6.25 0H8.75C8.97101 0 9.18297 0.0877973 9.33926 0.244078C9.49554 0.400358 9.58333 0.61232 9.58333 0.833333V3.33333C9.58333 3.55435 9.49554 3.76631 9.33926 3.92259C9.18297 4.07887 8.97101 4.16667 8.75 4.16667H6.25C6.02899 4.16667 5.81702 4.07887 5.66074 3.92259C5.50446 3.76631 5.41667 3.55435 5.41667 3.33333V0.833333ZM5.41667 6.25C5.41667 6.02899 5.50446 5.81702 5.66074 5.66074C5.81702 5.50446 6.02899 5.41667 6.25 5.41667H8.75C8.97101 5.41667 9.18297 5.50446 9.33926 5.66074C9.49554 5.81702 9.58333 6.02899 9.58333 6.25V8.75C9.58333 8.97101 9.49554 9.18297 9.33926 9.33926C9.18297 9.49554 8.97101 9.58333 8.75 9.58333H6.25C6.02899 9.58333 5.81702 9.49554 5.66074 9.33926C5.50446 9.18297 5.41667 8.97101 5.41667 8.75V6.25ZM5.41667 11.6667C5.41667 11.4457 5.50446 11.2337 5.66074 11.0774C5.81702 10.9211 6.02899 10.8333 6.25 10.8333H8.75C8.97101 10.8333 9.18297 10.9211 9.33926 11.0774C9.49554 11.2337 9.58333 11.4457 9.58333 11.6667V14.1667C9.58333 14.3877 9.49554 14.5996 9.33926 14.7559C9.18297 14.9122 8.97101 15 8.75 15H6.25C6.02899 15 5.81702 14.9122 5.66074 14.7559C5.50446 14.5996 5.41667 14.3877 5.41667 14.1667V11.6667ZM10.8333 0.833333C10.8333 0.61232 10.9211 0.400358 11.0774 0.244078C11.2337 0.0877973 11.4457 0 11.6667 0H14.1667C14.3877 0 14.5996 0.0877973 14.7559 0.244078C14.9122 0.400358 15 0.61232 15 0.833333V3.33333C15 3.55435 14.9122 3.76631 14.7559 3.92259C14.5996 4.07887 14.3877 4.16667 14.1667 4.16667H11.6667C11.4457 4.16667 11.2337 4.07887 11.0774 3.92259C10.9211 3.76631 10.8333 3.55435 10.8333 3.33333V0.833333ZM10.8333 6.25C10.8333 6.02899 10.9211 5.81702 11.0774 5.66074C11.2337 5.50446 11.4457 5.41667 11.6667 5.41667H14.1667C14.3877 5.41667 14.5996 5.50446 14.7559 5.66074C14.9122 5.81702 15 6.02899 15 6.25V8.75C15 8.97101 14.9122 9.18297 14.7559 9.33926C14.5996 9.49554 14.3877 9.58333 14.1667 9.58333H11.6667C11.4457 9.58333 11.2337 9.49554 11.0774 9.33926C10.9211 9.18297 10.8333 8.97101 10.8333 8.75V6.25ZM10.8333 11.6667C10.8333 11.4457 10.9211 11.2337 11.0774 11.0774C11.2337 10.9211 11.4457 10.8333 11.6667 10.8333H14.1667C14.3877 10.8333 14.5996 10.9211 14.7559 11.0774C14.9122 11.2337 15 11.4457 15 11.6667V14.1667C15 14.3877 14.9122 14.5996 14.7559 14.7559C14.5996 14.9122 14.3877 15 14.1667 15H11.6667C11.4457 15 11.2337 14.9122 11.0774 14.7559C10.9211 14.5996 10.8333 14.3877 10.8333 14.1667V11.6667Z" fill="#3E6DEE"/>
</svg>
