<svg width="17" height="14" viewBox="0 0 17 14" fill="none" xmlns="http://www.w3.org/2000/svg">
<path d="M1.45714 0C0.652154 0 0 0.653321 0 1.4583V12.5356C0 13.3406 0.653321 13.9939 1.45714 13.9939H2.04046C2.84544 13.9939 3.4976 13.3406 3.4976 12.5356V1.45714C3.4976 0.652154 2.84428 0 2.03929 0H1.4583H1.45714ZM6.12021 0C5.31523 0 4.66191 0.653321 4.66191 1.4583V12.5356C4.66191 13.3406 5.31523 13.9939 6.12021 13.9939H6.70354C7.0899 13.9933 7.46022 13.8394 7.7332 13.5659C8.00619 13.2925 8.15951 12.922 8.15951 12.5356V1.45714C8.1592 1.07078 8.00558 0.700327 7.73238 0.427127C7.45918 0.153928 7.08873 0.000308966 6.70237 0H6.11905H6.12021ZM12.8004 3.23977C12.6606 2.89199 12.392 2.61149 12.0507 2.45658C11.7094 2.30166 11.3215 2.28425 10.9676 2.40795L10.2886 2.64595C10.1028 2.71118 9.93218 2.81335 9.78694 2.94632C9.64171 3.07929 9.52491 3.24029 9.44358 3.41963C9.36225 3.59896 9.31809 3.7929 9.31374 3.98977C9.3094 4.18663 9.34497 4.38233 9.41832 4.56508L12.8447 13.0862C13.1352 13.8096 13.9414 14.1747 14.6775 13.9181L15.3565 13.6801C15.5425 13.6149 15.7133 13.5126 15.8586 13.3796C16.0039 13.2465 16.1208 13.0854 16.2021 12.9059C16.2835 12.7265 16.3276 12.5324 16.3318 12.3354C16.3361 12.1384 16.3004 11.9426 16.2269 11.7598L12.8004 3.23977Z" fill="#A6A6A6"/>
</svg>
