<svg width="15" height="16" viewBox="0 0 15 16" fill="none" xmlns="http://www.w3.org/2000/svg">
<path d="M0.75 3.5C0.3375 3.5 0 3.8375 0 4.25V14C0 14.825 0.675 15.5 1.5 15.5H11.25C11.6625 15.5 12 15.1625 12 14.75C12 14.3375 11.6625 14 11.25 14H2.25C1.8375 14 1.5 13.6625 1.5 13.25V4.25C1.5 3.8375 1.1625 3.5 0.75 3.5ZM13.5 0.5H4.5C3.675 0.5 3 1.175 3 2V11C3 11.825 3.675 12.5 4.5 12.5H13.5C14.325 12.5 15 11.825 15 11V2C15 1.175 14.325 0.5 13.5 0.5ZM12 7.25H6C5.5875 7.25 5.25 6.9125 5.25 6.5C5.25 6.0875 5.5875 5.75 6 5.75H12C12.4125 5.75 12.75 6.0875 12.75 6.5C12.75 6.9125 12.4125 7.25 12 7.25ZM9 10.25H6C5.5875 10.25 5.25 9.9125 5.25 9.5C5.25 9.0875 5.5875 8.75 6 8.75H9C9.4125 8.75 9.75 9.0875 9.75 9.5C9.75 9.9125 9.4125 10.25 9 10.25ZM12 4.25H6C5.5875 4.25 5.25 3.9125 5.25 3.5C5.25 3.0875 5.5875 2.75 6 2.75H12C12.4125 2.75 12.75 3.0875 12.75 3.5C12.75 3.9125 12.4125 4.25 12 4.25Z" fill="#A6A6A6"/>
</svg>
