<svg width="28" height="30" viewBox="0 0 28 30" fill="none" xmlns="http://www.w3.org/2000/svg">
<g clip-path="url(#clip0_24_253)">
<path d="M27.9999 10.0312V16.25C27.9999 16.5815 27.8658 16.8995 27.6272 17.1339C27.3885 17.3683 27.0648 17.5 26.7272 17.5C26.3897 17.5 26.066 17.3683 25.8273 17.1339C25.5886 16.8995 25.4545 16.5815 25.4545 16.25V11.25H17.8182C17.4806 11.25 17.1569 11.1183 16.9182 10.8839C16.6795 10.6494 16.5454 10.3315 16.5454 10V2.50001H2.54545V16.25C2.54545 16.5815 2.41136 16.8995 2.17268 17.1339C1.934 17.3683 1.61027 17.5 1.27272 17.5C0.935177 17.5 0.611456 17.3683 0.372773 17.1339C0.13409 16.8995 0 16.5815 0 16.25V2.50001C0 1.83697 0.268181 1.20109 0.745547 0.732252C1.22291 0.263412 1.87035 2.01407e-05 2.54545 2.01407e-05H17.8182C18.1568 -0.00185479 18.4825 0.127242 18.7249 0.359395L27.6182 9.10939C27.7402 9.22443 27.8371 9.36279 27.9028 9.51592C27.9684 9.6691 28.0015 9.83383 27.9999 10V10.0312ZM19.0909 8.75H23.6568L19.0909 4.26564V8.75Z" fill="#C2060B"/>
<path d="M6.65422 24.4892H5.2597V26.6169C5.2597 26.9211 5.18792 27.1518 5.04437 27.309C4.90082 27.4663 4.71967 27.5448 4.50092 27.5448C4.27191 27.5448 4.08734 27.468 3.9472 27.3141C3.80707 27.1569 3.737 26.9279 3.737 26.6271V20.8336C3.737 20.4987 3.81391 20.2595 3.96771 20.1159C4.12152 19.9724 4.36591 19.9005 4.70086 19.9005H6.65422C7.2319 19.9005 7.67622 19.945 7.98725 20.0339C8.29485 20.1193 8.55974 20.2612 8.78193 20.4594C9.0075 20.6577 9.17842 20.9003 9.29462 21.1874C9.41082 21.4746 9.46892 21.7975 9.46892 22.1564C9.46892 22.922 9.23308 23.5031 8.76139 23.8996C8.28971 24.2926 7.58732 24.4892 6.65422 24.4892ZM6.28509 21.0439H5.2597V23.3408H6.28509C6.64395 23.3408 6.94303 23.3031 7.18231 23.2279C7.42498 23.1527 7.60954 23.0297 7.73601 22.8588C7.86248 22.6879 7.92571 22.4641 7.92571 22.1872C7.92571 21.8556 7.8283 21.5856 7.63346 21.3771C7.41471 21.1549 6.96525 21.0439 6.28509 21.0439ZM12.1038 19.9005H14.0879C14.604 19.9005 15.0466 19.9484 15.4158 20.0441C15.7849 20.1398 16.1199 20.3193 16.4207 20.5825C17.2034 21.2524 17.5948 22.2709 17.5948 23.6381C17.5948 24.0893 17.5554 24.5012 17.4768 24.8737C17.3982 25.2463 17.2769 25.5829 17.1128 25.8837C16.9488 26.1811 16.7385 26.4477 16.4822 26.6835C16.2806 26.8647 16.0601 27.0099 15.8208 27.1193C15.5816 27.2287 15.3235 27.3056 15.0466 27.35C14.7732 27.3945 14.4639 27.4167 14.1187 27.4167H12.1345C11.8577 27.4167 11.6492 27.3757 11.5091 27.2937C11.3689 27.2082 11.2766 27.0902 11.2322 26.9399C11.1912 26.786 11.1707 26.5878 11.1707 26.3452V20.8336C11.1707 20.5055 11.2442 20.268 11.3911 20.121C11.5381 19.974 11.7757 19.9005 12.1038 19.9005ZM12.6934 21.1054V26.2067H13.847C14.0999 26.2067 14.2981 26.1999 14.4417 26.1862C14.5852 26.1725 14.7339 26.1384 14.8877 26.0836C15.0415 26.029 15.1748 25.9521 15.2876 25.8529C15.7969 25.4223 16.0515 24.6806 16.0515 23.6279C16.0515 22.8862 15.9387 22.3307 15.7132 21.9616C15.491 21.5924 15.2159 21.3584 14.8877 21.2592C14.5596 21.1567 14.1631 21.1054 13.6983 21.1054H12.6934ZM23.8441 21.0746H20.8448V22.9972H23.3519C23.5843 22.9972 23.7569 23.0502 23.8697 23.1562C23.9859 23.2587 24.044 23.3972 24.044 23.5715C24.044 23.7458 23.9859 23.8842 23.8697 23.9867C23.7535 24.0893 23.5809 24.1406 23.3519 24.1406H20.8448V26.6169C20.8448 26.9313 20.773 27.1654 20.6295 27.3193C20.4894 27.4696 20.3082 27.5448 20.0861 27.5448C19.8604 27.5448 19.6759 27.468 19.5323 27.3141C19.3922 27.1603 19.3221 26.9279 19.3221 26.6169V20.8336C19.3221 20.6149 19.3546 20.4372 19.4195 20.3005C19.4845 20.1603 19.5853 20.0595 19.722 19.998C19.8622 19.933 20.0399 19.9005 20.2552 19.9005H23.8441C24.0868 19.9005 24.2662 19.9553 24.3824 20.0646C24.5021 20.1706 24.5619 20.3107 24.5619 20.485C24.5619 20.6628 24.5021 20.8063 24.3824 20.9157C24.2662 21.0217 24.0868 21.0746 23.8441 21.0746Z" fill="#C2060B"/>
<path d="M5.25968 24.4891V24.1975H4.96802V24.4891H5.25968ZM3.94718 27.3141L3.72944 27.5082L3.73158 27.5106L3.94718 27.3141ZM7.98723 20.0339L7.90708 20.3143L7.90918 20.3149L7.98723 20.0339ZM8.78191 20.4594L8.58772 20.677L8.58935 20.6785L8.78191 20.4594ZM8.76138 23.8996L8.9481 24.1236L8.94909 24.1228L8.76138 23.8996ZM5.25968 21.0439V20.7522H4.96802V21.0439H5.25968ZM5.25968 23.3407H4.96802V23.6324H5.25968V23.3407ZM7.18229 23.2279L7.09596 22.9493L7.09485 22.9497L7.18229 23.2279ZM7.63344 21.3771L7.84665 21.1779L7.84128 21.1725L7.63344 21.3771ZM6.6542 24.1975H5.25968V24.7808H6.6542V24.1975ZM4.96802 24.4891V26.6168H5.55135V24.4891H4.96802ZM4.96802 26.6168C4.96802 26.8793 4.90593 27.028 4.82896 27.1123L5.25974 27.5057C5.46989 27.2755 5.55135 26.9628 5.55135 26.6168H4.96802ZM4.82896 27.1123C4.74237 27.2072 4.64025 27.2531 4.5009 27.2531V27.8365C4.79904 27.8365 5.05923 27.7252 5.25974 27.5057L4.82896 27.1123ZM4.5009 27.2531C4.34475 27.2531 4.24174 27.2043 4.16278 27.1177L3.73158 27.5106C3.9329 27.7315 4.19903 27.8365 4.5009 27.8365V27.2531ZM4.16492 27.12C4.08932 27.0352 4.02865 26.8866 4.02865 26.6271H3.44531C3.44531 26.9691 3.52477 27.2785 3.72945 27.5082L4.16492 27.12ZM4.02865 26.6271V20.8336H3.44531V26.6271H4.02865ZM4.02865 20.8336C4.02865 20.5329 4.09912 20.3922 4.1667 20.3291L3.76868 19.9026C3.52864 20.1267 3.44531 20.4645 3.44531 20.8336H4.02865ZM4.1667 20.3291C4.24222 20.2586 4.39801 20.1922 4.70084 20.1922V19.6089C4.33376 19.6089 4.00078 19.686 3.76868 19.9026L4.1667 20.3291ZM4.70084 20.1922H6.6542V19.6089H4.70084V20.1922ZM6.6542 20.1922C7.22243 20.1922 7.6349 20.2365 7.90708 20.3143L8.06733 19.7534C7.71744 19.6534 7.24127 19.6089 6.6542 19.6089V20.1922ZM7.90918 20.3149C8.17688 20.3892 8.40128 20.5106 8.58772 20.677L8.9761 20.2418C8.71821 20.0116 8.41278 19.8494 8.06528 19.7528L7.90918 20.3149ZM8.58935 20.6785C8.77975 20.8458 8.92453 21.0505 9.02423 21.2968L9.56498 21.078C9.43227 20.7501 9.23522 20.4695 8.97441 20.2403L8.58935 20.6785ZM9.02423 21.2968C9.12433 21.5441 9.17723 21.8291 9.17723 22.1564H9.76057C9.76057 21.7659 9.69728 21.4049 9.56498 21.078L9.02423 21.2968ZM9.17723 22.1564C9.17723 22.8587 8.96385 23.3484 8.57372 23.6763L8.94909 24.1228C9.50233 23.6578 9.76057 22.9854 9.76057 22.1564H9.17723ZM8.57465 23.6755C8.17664 24.0072 7.55306 24.1975 6.6542 24.1975V24.7808C7.6216 24.7808 8.4028 24.578 8.9481 24.1236L8.57465 23.6755ZM6.28507 20.7522H5.25968V21.3355H6.28507V20.7522ZM4.96802 21.0439V23.3407H5.55135V21.0439H4.96802ZM5.25968 23.6324H6.28507V23.0491H5.25968V23.6324ZM6.28507 23.6324C6.66196 23.6324 6.99288 23.5932 7.26973 23.5062L7.09485 22.9497C6.89319 23.0131 6.62597 23.0491 6.28507 23.0491V23.6324ZM7.26863 23.5065C7.55872 23.4166 7.80028 23.2622 7.97043 23.0323L7.50155 22.6853C7.41878 22.7971 7.2912 22.8888 7.09596 22.9493L7.26863 23.5065ZM7.97043 23.0323C8.14392 22.7979 8.21736 22.5076 8.21736 22.1872H7.63403C7.63403 22.4204 7.581 22.5779 7.50155 22.6853L7.97043 23.0323ZM8.21736 22.1872C8.21736 21.7945 8.09999 21.4492 7.84659 21.178L7.42035 21.5763C7.55662 21.722 7.63403 21.9168 7.63403 22.1872H8.21736ZM7.84128 21.1725C7.67999 21.0087 7.45564 20.9067 7.2023 20.844C6.94668 20.7808 6.6388 20.7522 6.28507 20.7522V21.3355C6.6115 21.3355 6.86846 21.3624 7.0623 21.4103C7.25842 21.4588 7.36814 21.5234 7.42566 21.5817L7.84128 21.1725ZM16.4207 20.5824L16.2286 20.8019L16.231 20.804L16.4207 20.5824ZM17.1128 25.8837L17.3682 26.0246L17.3689 26.0234L17.1128 25.8837ZM16.4822 26.6835L16.6771 26.9005L16.6797 26.8981L16.4822 26.6835ZM15.0466 27.35L15.0004 27.062L14.9998 27.0621L15.0466 27.35ZM11.5091 27.2936L11.3572 27.5427L11.3617 27.5453L11.5091 27.2936ZM11.2322 26.9398L10.9503 27.015L10.9524 27.0225L11.2322 26.9398ZM12.6933 21.1054V20.8137H12.4017V21.1054H12.6933ZM12.6933 26.2067H12.4017V26.4984H12.6933V26.2067ZM15.2876 25.8529L15.0992 25.6302L15.095 25.6339L15.2876 25.8529ZM15.7131 21.9616L15.4632 22.112L15.4643 22.1137L15.7131 21.9616ZM14.8877 21.2592L14.8007 21.5376L14.8034 21.5384L14.8877 21.2592ZM12.1038 20.1922H14.0879V19.6089H12.1038V20.1922ZM14.0879 20.1922C14.5874 20.1922 15.004 20.2387 15.3426 20.3264L15.489 19.7617C15.0892 19.6581 14.6206 19.6089 14.0879 19.6089V20.1922ZM15.3426 20.3264C15.6656 20.4102 15.9603 20.5672 16.2286 20.8019L16.6127 20.3629C16.2794 20.0713 15.9042 19.8694 15.489 19.7617L15.3426 20.3264ZM16.231 20.804C16.9294 21.4018 17.3031 22.3265 17.3031 23.6381H17.8864C17.8864 22.2152 17.4773 21.1029 16.6103 20.3608L16.231 20.804ZM17.3031 23.6381C17.3031 24.0726 17.2652 24.4639 17.1914 24.8135L17.7622 24.9339C17.8457 24.5383 17.8864 24.1059 17.8864 23.6381H17.3031ZM17.1914 24.8135C17.118 25.1613 17.0058 25.4708 16.8568 25.744L17.3689 26.0234C17.5479 25.6951 17.6784 25.3312 17.7622 24.9339L17.1914 24.8135ZM16.8574 25.7428C16.7089 26.0119 16.5185 26.2538 16.2847 26.4689L16.6797 26.8981C16.9586 26.6416 17.1885 26.3502 17.3682 26.0246L16.8574 25.7428ZM16.2873 26.4665C16.1069 26.6286 15.9111 26.7573 15.6995 26.854L15.942 27.3846C16.209 27.2625 16.4541 27.1008 16.6771 26.9005L16.2873 26.4665ZM15.6995 26.854C15.4857 26.9518 15.2531 27.0215 15.0004 27.062L15.0929 27.638C15.3939 27.5897 15.6774 27.5056 15.942 27.3846L15.6995 26.854ZM14.9998 27.0621C14.7451 27.1035 14.4519 27.125 14.1187 27.125V27.7083C14.4759 27.7083 14.8013 27.6853 15.0934 27.6379L14.9998 27.0621ZM14.1187 27.125H12.1345V27.7083H14.1187V27.125ZM12.1345 27.125C11.8774 27.125 11.7305 27.0853 11.6564 27.0419L11.3617 27.5453C11.5679 27.666 11.838 27.7083 12.1345 27.7083V27.125ZM11.6609 27.0446C11.5793 26.9949 11.5348 26.9347 11.5119 26.8572L10.9524 27.0225C11.0184 27.2457 11.1584 27.4214 11.3572 27.5427L11.6609 27.0446ZM11.514 26.8647C11.482 26.7447 11.4623 26.5742 11.4623 26.3451H10.879C10.879 26.6014 10.9003 26.8274 10.9503 27.015L11.514 26.8647ZM11.4623 26.3451V20.8336H10.879V26.3451H11.4623ZM11.4623 20.8336C11.4623 20.5396 11.5295 20.3951 11.5974 20.3272L11.1849 19.9148C10.9587 20.1409 10.879 20.4715 10.879 20.8336H11.4623ZM11.5974 20.3272C11.6652 20.2594 11.8096 20.1922 12.1038 20.1922V19.6089C11.7416 19.6089 11.411 19.6887 11.1849 19.9148L11.5974 20.3272ZM12.4017 21.1054V26.2067H12.985V21.1054H12.4017ZM12.6933 26.4984H13.8469V25.915H12.6933V26.4984ZM13.8469 26.4984C14.1033 26.4984 14.3122 26.4915 14.4693 26.4766L14.414 25.8958C14.284 25.9082 14.0964 25.915 13.8469 25.915V26.4984ZM14.4693 26.4766C14.6397 26.4603 14.8119 26.4201 14.9854 26.3585L14.79 25.8088C14.6559 25.8565 14.5307 25.8847 14.414 25.8958L14.4693 26.4766ZM14.9854 26.3585C15.171 26.2925 15.3372 26.1976 15.4802 26.072L15.095 25.6339C15.0124 25.7065 14.912 25.7655 14.79 25.8088L14.9854 26.3585ZM15.476 26.0756C16.0808 25.5641 16.3432 24.717 16.3432 23.6278H15.7599C15.7599 24.6441 15.5129 25.2804 15.0992 25.6302L15.476 26.0756ZM16.3432 23.6278C16.3432 22.8662 16.2291 22.2465 15.962 21.8095L15.4643 22.1137C15.6483 22.4149 15.7599 22.906 15.7599 23.6278H16.3432ZM15.963 21.8112C15.7135 21.3966 15.3859 21.105 14.972 20.98L14.8034 21.5384C15.0457 21.6116 15.2684 21.7883 15.4632 22.112L15.963 21.8112ZM14.9747 20.9808C14.6105 20.867 14.1829 20.8137 13.6982 20.8137V21.3971C14.1433 21.3971 14.5087 21.4463 14.8007 21.5376L14.9747 20.9808ZM13.6982 20.8137H12.6933V21.3971H13.6982V20.8137ZM20.8448 21.0746V20.7829H20.5531V21.0746H20.8448ZM20.8448 22.9972H20.5531V23.2889H20.8448V22.9972ZM23.8697 23.1562L23.67 23.3687L23.6733 23.3719L23.6767 23.3749L23.8697 23.1562ZM20.8448 24.1405V23.8489H20.5531V24.1405H20.8448ZM20.6295 27.3192L20.4163 27.1202L20.4161 27.1204L20.6295 27.3192ZM19.5323 27.3141L19.3167 27.5106L19.3191 27.5131L19.5323 27.3141ZM19.4195 20.3005L19.683 20.4256L19.6841 20.4231L19.4195 20.3005ZM19.722 19.9979L19.8417 20.2639L19.8447 20.2626L19.722 19.9979ZM24.3824 20.0646L24.1825 20.277L24.1857 20.28L24.189 20.283L24.3824 20.0646ZM24.3824 20.9157L24.5789 21.1312L24.5792 21.1309L24.3824 20.9157ZM23.844 20.7829H20.8448V21.3663H23.844V20.7829ZM20.5531 21.0746V22.9972H21.1364V21.0746H20.5531ZM20.8448 23.2889H23.3519V22.7055H20.8448V23.2889ZM23.3519 23.2889C23.5465 23.2889 23.6331 23.334 23.67 23.3687L24.0694 22.9436C23.8808 22.7664 23.6221 22.7055 23.3519 22.7055V23.2889ZM23.6767 23.3749C23.722 23.4148 23.7523 23.4692 23.7523 23.5714H24.3357C24.3357 23.3251 24.2499 23.1026 24.0627 22.9375L23.6767 23.3749ZM23.7523 23.5714C23.7523 23.6737 23.722 23.7281 23.6767 23.768L24.0627 24.2054C24.2499 24.0403 24.3357 23.8178 24.3357 23.5714H23.7523ZM23.6767 23.768C23.6343 23.8055 23.5429 23.8489 23.3519 23.8489V24.4322C23.6188 24.4322 23.8727 24.3731 24.0627 24.2054L23.6767 23.768ZM23.3519 23.8489H20.8448V24.4322H23.3519V23.8489ZM20.5531 24.1405V26.6168H21.1364V24.1405H20.5531ZM20.5531 26.6168C20.5531 26.8932 20.4893 27.0419 20.4163 27.1202L20.8427 27.5183C21.0567 27.289 21.1364 26.9694 21.1364 26.6168H20.5531ZM20.4161 27.1204C20.3359 27.2065 20.2346 27.2531 20.086 27.2531V27.8365C20.3818 27.8365 20.6428 27.7328 20.8428 27.5181L20.4161 27.1204ZM20.086 27.2531C19.9347 27.2531 19.8296 27.2052 19.7455 27.1151L19.3191 27.5131C19.5221 27.7307 19.7861 27.8365 20.086 27.8365V27.2531ZM19.7479 27.1177C19.6761 27.0388 19.6138 26.8903 19.6138 26.6168H19.0304C19.0304 26.9654 19.1083 27.2817 19.3167 27.5106L19.7479 27.1177ZM19.6138 26.6168V20.8336H19.0304V26.6168H19.6138ZM19.6138 20.8336C19.6138 20.6404 19.643 20.5098 19.683 20.4256L19.156 20.1753C19.0661 20.3646 19.0304 20.5894 19.0304 20.8336H19.6138ZM19.6841 20.4231C19.7206 20.3445 19.771 20.2957 19.8417 20.2639L19.6023 19.732C19.3995 19.8232 19.2484 19.9761 19.1549 20.1778L19.6841 20.4231ZM19.8447 20.2626C19.9343 20.221 20.0666 20.1922 20.2552 20.1922V19.6089C20.0131 19.6089 19.7899 19.645 19.5994 19.7333L19.8447 20.2626ZM20.2552 20.1922H23.844V19.6089H20.2552V20.1922ZM23.844 20.1922C24.0501 20.1922 24.1427 20.2396 24.1825 20.277L24.5823 19.8522C24.3897 19.6709 24.1233 19.6089 23.844 19.6089V20.1922ZM24.189 20.283C24.2401 20.3282 24.2702 20.3857 24.2702 20.485H24.8535C24.8535 20.2357 24.764 20.013 24.5758 19.8463L24.189 20.283ZM24.2702 20.485C24.2702 20.5897 24.2386 20.652 24.1856 20.7004L24.5792 21.1309C24.7655 20.9606 24.8535 20.7358 24.8535 20.485H24.2702ZM24.1859 20.7002C24.1461 20.7364 24.0521 20.7829 23.844 20.7829V21.3663C24.1214 21.3663 24.3863 21.3068 24.5789 21.1312L24.1859 20.7002Z" fill="#C2060B"/>
</g>
<defs>
<clipPath id="clip0_24_253">
<rect width="28" height="29.75" fill="white"/>
</clipPath>
</defs>
</svg>
