<svg width="13" height="16" viewBox="0 0 13 16" fill="none" xmlns="http://www.w3.org/2000/svg">
<path d="M12.8 4.8L8 0H1.6C1.17565 0 0.768687 0.168571 0.468629 0.468629C0.168571 0.768687 0 1.17565 0 1.6V14.4C0 14.8243 0.168571 15.2313 0.468629 15.5314C0.768687 15.8314 1.17565 16 1.6 16H11.2C11.6243 16 12.0313 15.8314 12.3314 15.5314C12.6314 15.2313 12.8 14.8243 12.8 14.4V4.8ZM4 13.6H2.4V6.4H4V13.6ZM7.2 13.6H5.6V8.8H7.2V13.6ZM10.4 13.6H8.8V11.2H10.4V13.6ZM8 5.6H7.2V1.6L11.2 5.6H8Z" fill="#3E6DEE"/>
</svg>
